<mxfile host="app.diagrams.net" modified="2021-05-29T08:27:01.732Z" agent="5.0 (Windows NT 10.0; Win64; x64) AppleWebKit/537.36 (KHTML, like Gecko) Chrome/91.0.4472.77 Safari/537.36 Edg/91.0.864.37" etag="ZQvvVchzG5BEDn4Qbmps" version="14.7.3" type="github">
  <diagram name="Page-1" id="7e0a89b8-554c-2b80-1dc8-d5c74ca68de4">
    <mxGraphModel dx="1422" dy="794" grid="1" gridSize="10" guides="1" tooltips="1" connect="1" arrows="1" fold="1" page="1" pageScale="1" pageWidth="827" pageHeight="1169" background="#ffffff" math="0" shadow="0">
      <root>
        <mxCell id="0" />
        <mxCell id="1" parent="0" />
        <mxCell id="nm547ZjQrcTAWtDK7rr3-14" value="&lt;b&gt;&lt;font style=&quot;font-size: 16px&quot;&gt;Constantes de calibrage:&lt;/font&gt;&lt;/b&gt;&lt;br&gt;&lt;ul&gt;&lt;li&gt;&lt;span&gt;L1 =&amp;gt;&amp;nbsp;&lt;/span&gt;0.05647f&lt;br&gt;&lt;/li&gt;&lt;li&gt;L2 =&amp;gt; 0.05765f&lt;br&gt;&lt;/li&gt;&lt;li&gt;L3 =&amp;gt; 0.05702f&lt;br&gt;&lt;/li&gt;&lt;/ul&gt;" style="rounded=0;whiteSpace=wrap;html=1;" parent="1" vertex="1">
          <mxGeometry x="20.5" y="480" width="213.5" height="90" as="geometry" />
        </mxCell>
        <mxCell id="nm547ZjQrcTAWtDK7rr3-17" value="&lt;b style=&quot;font-size: 12px&quot;&gt;Pour tout autre branchement plus complexe, merci de consulter&lt;br&gt;&lt;/b&gt;https://github.com/FredM67/PVRouter-3-phase/tree/master/lang/fr-fr&lt;b style=&quot;font-size: 12px&quot;&gt;&lt;br&gt;&lt;/b&gt;" style="rounded=0;whiteSpace=wrap;html=1;" parent="1" vertex="1">
          <mxGeometry x="80" y="80" width="530" height="50" as="geometry" />
        </mxCell>
        <mxCell id="nm547ZjQrcTAWtDK7rr3-18" value="" style="shape=image;imageAspect=0;aspect=fixed;verticalLabelPosition=bottom;verticalAlign=top;image=data:image/png,iVBORw0KGgoAAAANSUhEUgAABOwAAATsCAYAAAAzRR2FAAAABHNCSVQICAgIfAhkiAAAIABJREFUeJzs2lGKJLkVQFHL5P63LH/Mh6FhwKa79O7kO2cDISkkZdUlzr33/gsAAAAASPj39AAAAAAAgP8S7AAAAAAgRLADAAAAgBDBDgAAAABCBDsAAAAACBHsAAAAACBEsAMAAACAEMEOAAAAAEIEOwAAAAAIEewAAAAAIESwAwAAAIAQwQ4AAAAAQgQ7AAAAAAgR7AAAAAAgRLADAAAAgBDBDgAAAABCBDsAAAAACBHsAAAAACBEsAMAAACAEMEOAAAAAEIEOwAAAAAIEewAAAAAIESwAwAAAIAQwQ4AAAAAQgQ7AAAAAAgR7AAAAAAgRLADAAAAgBDBDgAAAABCBDsAAAAACBHsAAAAACBEsAMAAACAEMEOAAAAAEIEOwAAAAAIEewAAAAAIESwAwAAAIAQwQ4AAAAAQgQ7AAAAAAgR7AAAAAAgRLADAAAAgBDBDgAAAABCBDsAAAAACBHsAAAAACBEsAMAAACAEMEOAAAAAEIEOwAAAAAIEewAAAAAIESwAwAAAIAQwQ4AAAAAQgQ7AAAAAAgR7AAAAAAgRLADAAAAgBDBDgAAAABCBDsAAAAACBHsAAAAACBEsAMAAACAEMEOAAAAAEIEOwAAAAAIEewAAAAAIESwAwAAAIAQwQ4AAAAAQgQ7AAAAAAgR7AAAAAAgRLADAAAAgBDBDgAAAABCBDsAAAAACBHsAAAAACBEsAMAAACAEMEOAAAAAEIEOwAAAAAIEewAAAAAIESwAwAAAIAQwQ4AAAAAQgQ7AAAAAAgR7AAAAAAgRLADAAAAgBDBDgAAAABCBDsAAAAACBHsAAAAACBEsAMAAACAEMEOAAAAAEIEOwAAAAAIEewAAAAAIESwAwAAAIAQwQ4AAAAAQgQ7AAAAAAgR7AAAAAAgRLADAAAAgBDBDgAAAABCBDsAAAAACBHsAAAAACBEsAMAAACAEMEOAAAAAEIEOwAAAAAIEewAAAAAIESwAwAAAIAQwQ4AAAAAQgQ7AAAAAAgR7AAAAAAgRLADAAAAgBDBDgAAAABCBDsAAAAACBHsAAAAACBEsAMAAACAEMEOAAAAAEIEOwAAAAAIEewAAAAAIESwAwAAAIAQwQ4AAAAAQgQ7AAAAAAgR7AAAAAAgRLADAAAAgBDBDgAAAABCBDsAAAAACBHsAAAAACBEsAMAAACAEMEOAAAAAEIEOwAAAAAIEewAAAAAIESwAwAAAIAQwQ4AAAAAQgQ7AAAAAAgR7AAAAAAgRLADAAAAgBDBDgAAAABCBDsAAAAACBHsAAAAACBEsAMAAACAEMEOAAAAAEIEOwAAAAAIEewAAAAAIESwAwAAAIAQwQ4AAAAAQgQ7AAAAAAgR7AAAAAAg5DM9ALrOOdNDgH+8e+/0EJ6auje2rfMU7/e7+d3/bs4RP8G9Ab/P/czf8YUdAAAAAIQIdgAAAAAQItgBAAAAQIhgBwAAAAAhgh0AAAAAhAh2AAAAABAi2AEAAABAiGAHAAAAACGCHQAAAACECHYAAAAAECLYAQAAAECIYAcAAAAAIYIdAAAAAIQIdgAAAAAQItgBAAAAQIhgBwAAAAAhgh0AAAAAhAh2AAAAABAi2AEAAABAiGAHAAAAACGCHQAAAACECHYAAAAAECLYAQAAAECIYAcAAAAAIYIdAAAAAIQIdgAAAAAQItgBAAAAQIhgBwAAAAAhgh0AAAAAhHymBwC/uvdOD4EvdM6ZHsJT2+Y7xTq/sW2dp34Hp5479X63/b3hHL1hP7+xbb68se2epM8XdgAAAAAQItgBAAAAQIhgBwAAAAAhgh0AAAAAhAh2AAAAABAi2AEAAABAiGAHAAAAACGCHQAAAACECHYAAAAAECLYAQAAAECIYAcAAAAAIYIdAAAAAIQIdgAAAAAQItgBAAAAQIhgBwAAAAAhgh0AAAAAhAh2AAAAABAi2AEAAABAiGAHAAAAACGCHQAAAACECHYAAAAAECLYAQAAAECIYAcAAAAAIYIdAAAAAIQIdgAAAAAQItgBAAAAQIhgBwAAAAAhgh0AAAAAhAh2AAAAABDymR4AVJxzpoewwr13eggrTK3z1Dnadn63naOp97ttnYHf5974btv+3pjiHMFffGEHAAAAACGCHQAAAACECHYAAAAAECLYAQAAAECIYAcAAAAAIYIdAAAAAIQIdgAAAAAQItgBAAAAQIhgBwAAAAAhgh0AAAAAhAh2AAAAABAi2AEAAABAiGAHAAAAACGCHQAAAACECHYAAAAAECLYAQAAAECIYAcAAAAAIYIdAAAAAIQIdgAAAAAQItgBAAAAQIhgBwAAAAAhgh0AAAAAhAh2AAAAABAi2AEAAABAiGAHAAAAACGCHQAAAACECHYAAAAAECLYAQAAAECIYAcAAAAAIZ/pAQDw551zpofw1L135Lnb1tl8+QlT53fK1L7ats5TvF8A/hRf2AEAAABAiGAHAAAAACGCHQAAAACECHYAAAAAECLYAQAAAECIYAcAAAAAIYIdAAAAAIQIdgAAAAAQItgBAAAAQIhgBwAAAAAhgh0AAAAAhAh2AAAAABAi2AEAAABAiGAHAAAAACGCHQAAAACECHYAAAAAECLYAQAAAECIYAcAAAAAIYIdAAAAAIQIdgAAAAAQItgBAAAAQIhgBwAAAAAhgh0AAAAAhAh2AAAAABAi2AEAAABAiGAHAAAAACGCHQAAAACECHYAAAAAECLYAQAAAEDIZ3oAAPx5997pITx1zhl57tQ6T813iv38hv383azzG9vuKwB+ji/sAAAAACBEsAMAAACAEMEOAAAAAEIEOwAAAAAIEewAAAAAIESwAwAAAIAQwQ4AAAAAQgQ7AAAAAAgR7AAAAAAgRLADAAAAgBDBDgAAAABCBDsAAAAACBHsAAAAACBEsAMAAACAEMEOAAAAAEIEOwAAAAAIEewAAAAAIESwAwAAAIAQwQ4AAAAAQgQ7AAAAAAgR7AAAAAAgRLADAAAAgBDBDgAAAABCBDsAAAAACBHsAAAAACBEsAMAAACAEMEOAAAAAEIEOwAAAAAIEewAAAAAIOQzPQCouPdODwH+mHPOyHOdoze2rfPUfua7TZ2jbffztvny3ewr4CVf2AEAAABAiGAHAAAAACGCHQAAAACECHYAAAAAECLYAQAAAECIYAcAAAAAIYIdAAAAAIQIdgAAAAAQItgBAAAAQIhgBwAAAAAhgh0AAAAAhAh2AAAAABAi2AEAAABAiGAHAAAAACGCHQAAAACECHYAAAAAECLYAQAAAECIYAcAAAAAIYIdAAAAAIQIdgAAAAAQItgBAAAAQIhgBwAAAAAhgh0AAAAAhAh2AAAAABAi2AEAAABAiGAHAAAAACGCHQAAAACECHYAAAAAECLYAQAAAEDIZ3oA8KtzzvQQANKm7sl778hzp0zN1+8g/HO5n99wTwIb+MIOAAAAAEIEOwAAAAAIEewAAAAAIESwAwAAAIAQwQ4AAAAAQgQ7AAAAAAgR7AAAAAAgRLADAAAAgBDBDgAAAABCBDsAAAAACBHsAAAAACBEsAMAAACAEMEOAAAAAEIEOwAAAAAIEewAAAAAIESwAwAAAIAQwQ4AAAAAQgQ7AAAAAAgR7AAAAAAgRLADAAAAgBDBDgAAAABCBDsAAAAACBHsAAAAACBEsAMAAACAEMEOAAAAAEIEOwAAAAAIEewAAAAAIESwAwAAAIAQwQ4AAAAAQs69904PAgD4351zRp677U+GqXWesu39TrGvAID/hS/sAAAAACBEsAMAAACAEMEOAAAAAEIEOwAAAAAIEewAAAAAIESwAwAAAIAQwQ4AAAAAQgQ7AAAAAAgR7AAAAAAgRLADAAAAgBDBDgAAAABCBDsAAAAACBHsAAAAACBEsAMAAACAEMEOAAAAAEIEOwAAAAAIEewAAAAAIESwAwAAAIAQwQ4AAAAAQgQ7AAAAAAgR7AAAAAAgRLADAAAAgBDBDgAAAABCBDsAAAAACBHsAAAAACBEsAMAAACAEMEOAAAAAEIEOwAAAAAIEewAAAAAIOQzPQC6zjnTQ+AL3XtHnms/8xOm9vMU5+iNbfek+fJNtt2Tzu8b5vuG+5kaX9gBAAAAQIhgBwAAAAAhgh0AAAAAhAh2AAAAABAi2AEAAABAiGAHAAAAACGCHQAAAACECHYAAAAAECLYAQAAAECIYAcAAAAAIYIdAAAAAIQIdgAAAAAQItgBAAAAQIhgBwAAAAAhgh0AAAAAhAh2AAAAABAi2AEAAABAiGAHAAAAACGCHQAAAACECHYAAAAAECLYAQAAAECIYAcAAAAAIYIdAAAAAIQIdgAAAAAQItgBAAAAQIhgBwAAAAAhgh0AAAAAhAh2AAAAABAi2AEAAABAyGd6ALDdvXfkueecVc+dWudtvN83ts13G+eInzC1r7bZdo7cV29s+39hiv1MjS/sAAAAACBEsAMAAACAEMEOAAAAAEIEOwAAAAAIEewAAAAAIESwAwAAAIAQwQ4AAAAAQgQ7AAAAAAgR7AAAAAAgRLADAAAAgBDBDgAAAABCBDsAAAAACBHsAAAAACBEsAMAAACAEMEOAAAAAEIEOwAAAAAIEewAAAAAIESwAwAAAIAQwQ4AAAAAQgQ7AAAAAAgR7AAAAAAgRLADAAAAgBDBDgAAAABCBDsAAAAACBHsAAAAACBEsAMAAACAEMEOAAAAAEIEOwAAAAAIEewAAAAAIOQzPQCouPdOD+GpbfM954w8d2qdp+a7zbZ1dm+84d54Y9s6m+8b2+Y7Zds6m+8b284Rfb6wAwAAAIAQwQ4AAAAAQgQ7AAAAAAgR7AAAAAAgRLADAAAAgBDBDgAAAABCBDsAAAAACBHsAAAAACBEsAMAAACAEMEOAAAAAEIEOwAAAAAIEewAAAAAIESwAwAAAIAQwQ4AAAAAQgQ7AAAAAAgR7AAAAAAgRLADAAAAgBDBDgAAAABCBDsAAAAACBHsAAAAACBEsAMAAACAEMEOAAAAAEIEOwAAAAAIEewAAAAAIESwAwAAAIAQwQ4AAAAAQgQ7AAAAAAgR7AAAAAAgRLADAAAAgJBz773Tg6DpnDPy3Kktab5vbLtyptaZ7+Yc8RPsqze2/e7zxrbzyxvb7kmo8YUdAAAAAIQIdgAAAAAQItgBAAAAQIhgBwAAAAAhgh0AAAAAhAh2AAAAABAi2AEAAABAiGAHAAAAACGCHQAAAACECHYAAAAAECLYAQAAAECIYAcAAAAAIYIdAAAAAIQIdgAAAAAQItgBAAAAQIhgBwAAAAAhgh0AAAAAhAh2AAAAABAi2AEAAABAiGAHAAAAACGCHQAAAACECHYAAAAAECLYAQAAAECIYAcAAAAAIYIdAAAAAIQIdgAAAAAQItgBAAAAQIhgBwAAAAAhgh0AAAAAhJx7750eBGx2zpkeAj9o2xU7tZ+n1tn5hd/nnnxj2zpvY1+9se13f9v7hRpf2AEAAABAiGAHAAAAACGCHQAAAACECHYAAAAAECLYAQAAAECIYAcAAAAAIYIdAAAAAIQIdgAAAAAQItgBAAAAQIhgBwAAAAAhgh0AAAAAhAh2AAAAABAi2AEAAABAiGAHAAAAACGCHQAAAACECHYAAAAAECLYAQAAAECIYAcAAAAAIYIdAAAAAIQIdgAAAAAQItgBAAAAQIhgBwAAAAAhgh0AAAAAhAh2AAAAABAi2AEAAABAiGAHAAAAACGCHQAAAACECHYAAAAAECLYAQAAAEDIZ3oAUHHOmR7CCvfe6SE8tW1fTb3fqXXeNt8p7o037Oc3tu3nKdvO0ZRt67zt/U7xuwB/8YUdAAAAAIQIdgAAAAAQItgBAAAAQIhgBwAAAAAhgh0AAAAAhAh2AAAAABAi2AEAAABAiGAHAAAAACGCHQAAAACECHYAAAAAECLYAQAAAECIYAcAAAAAIYIdAAAAAIQIdgAAAAAQItgBAAAAQIhgBwAAAAAhgh0AAAAAhAh2AAAAABAi2AEAAABAiGAHAAAAACGCHQAAAACECHYAAAAAECLYAQAAAECIYAcAAAAAIYIdAAAAAIQIdgAAAAAQItgBAAAAQIhgBwAAAAAhgh0AAAAAhHymBwAV996R555zRp67bb5TptZ5yrb3yxv21XdzT76x7Xd/23ynbDu/fDf7mRpf2AEAAABAiGAHAAAAACGCHQAAAACECHYAAAAAECLYAQAAAECIYAcAAAAAIYIdAAAAAIQIdgAAAAAQItgBAAAAQIhgBwAAAAAhgh0AAAAAhAh2AAAAABAi2AEAAABAiGAHAAAAACGCHQAAAACECHYAAAAAECLYAQAAAECIYAcAAAAAIYIdAAAAAIQIdgAAAAAQItgBAAAAQIhgBwAAAAAhgh0AAAAAhAh2AAAAABAi2AEAAABAiGAHAAAAACGCHQAAAACECHYAAAAAECLYAQAAAEDIZ3oAUHHOGXnuvXfkuVO2zXfK1H6eMrWvrDPwT7Htvtr2d533+9227St/b8BffGEHAAAAACGCHQAAAACECHYAAAAAECLYAQAAAECIYAcAAAAAIYIdAAAAAIQIdgAAAAAQItgBAAAAQIhgBwAAAAAhgh0AAAAAhAh2AAAAABAi2AEAAABAiGAHAAAAACGCHQAAAACECHYAAAAAECLYAQAAAECIYAcAAAAAIYIdAAAAAIQIdgAAAAAQItgBAAAAQIhgBwAAAAAhgh0AAAAAhAh2AAAAABAi2AEAAABAiGAHAAAAACGCHQAAAACECHYAAAAAECLYAQAAAECIYAcAAAAAIZ/pAdB1zpkewgrWmZ9w750ewlNT58g6A/+vqXtj2/m1zvD7tp2jbX/X0ecLOwAAAAAIEewAAAAAIESwAwAAAIAQwQ4AAAAAQgQ7AAAAAAgR7AAAAAAgRLADAAAAgBDBDgAAAABCBDsAAAAACBHsAAAAACBEsAMAAACAEMEOAAAAAEIEOwAAAAAIEewAAAAAIESwAwAAAIAQwQ4AAAAAQgQ7AAAAAAgR7AAAAAAgRLADAAAAgBDBDgAAAABCBDsAAAAACBHsAAAAACBEsAMAAACAEMEOAAAAAEIEOwAAAAAIEewAAAAAIESwAwAAAIAQwQ4AAAAAQgQ7AAAAAAj5TA8AfnXvnR7CU+ec6SE8te39TpnaV1Pvd+q51pmfsO13Ab7Jtnty2+/gFOv8hnWmxhd2AAAAABAi2AEAAABAiGAHAAAAACGCHQAAAACECHYAAAAAECLYAQAAAECIYAcAAAAAIYIdAAAAAIQIdgAAAAAQItgBAAAAQIhgBwAAAAAhgh0AAAAAhAh2AAAAABAi2AEAAABAiGAHAAAAACGCHQAAAACECHYAAAAAECLYAQAAAECIYAcAAAAAIYIdAAAAAIQIdgAAAAAQItgBAAAAQIhgBwAAAAAhgh0AAAAAhAh2AAAAABAi2AEAAABAiGAHAAAAACGCHQAAAACECHYAAAAAEPKZHgD86pwzPYSn7r0jz51aZ++XnzC1r7adX/gJ7snv5v1+t23v1+/vd9u2n+nzhR0AAAAAhAh2AAAAABAi2AEAAABAiGAHAAAAACGCHQAAAACECHYAAAAAECLYAQAAAECIYAcAAAAAIYIdAAAAAIQIdgAAAAAQItgBAAAAQIhgBwAAAAAhgh0AAAAAhAh2AAAAABAi2AEAAABAiGAHAAAAACGCHQAAAACECHYAAAAAECLYAQAAAECIYAcAAAAAIYIdAAAAAIQIdgAAAAAQItgBAAAAQIhgBwAAAAAhgh0AAAAAhAh2AAAAABAi2AEAAABAiGAHAAAAACGCHQAAAACEfKYHABX33ukhPLVtvrxxzpkewlNT8912frftq23vd4rz+9283ze2rbP3+8a2dYa/4ws7AAAAAAgR7AAAAAAgRLADAAAAgBDBDgAAAABCBDsAAAAACBHsAAAAACBEsAMAAACAEMEOAAAAAEIEOwAAAAAIEewAAAAAIESwAwAAAIAQwQ4AAAAAQgQ7AAAAAAgR7AAAAAAgRLADAAAAgBDBDgAAAABCBDsAAAAACBHsAAAAACBEsAMAAACAEMEOAAAAAEIEOwAAAAAIEewAAAAAIESwAwAAAIAQwQ4AAAAAQgQ7AAAAAAgR7AAAAAAgRLADAAAAgBDBDgAAAABCBDsAAAAACDn33js9CJrOOSPP3bYlp9YZvol747tNvd9tv4Pb5jtl2/nlDefou3m/b2xbZ/p8YQcAAAAAIYIdAAAAAIQIdgAAAAAQItgBAAAAQIhgBwAAAAAhgh0AAAAAhAh2AAAAABAi2AEAAABAiGAHAAAAACGCHQAAAACECHYAAAAAECLYAQAAAECIYAcAAAAAIYIdAAAAAIQIdgAAAAAQItgBAAAAQIhgBwAAAAAhgh0AAAAAhAh2AAAAABAi2AEAAABAiGAHAAAAACGCHQAAAACECHYAAAAAECLYAQAAAECIYAcAAAAAIYIdAAAAAIQIdgAAAAAQItgBAAAAQIhgBwAAAAAhn+kBQMU5Z3oIT917R547tc7m+8bUfJ1ffsK2c7RtX227N+AnuK/esM5vWGdqfGEHAAAAACGCHQAAAACECHYAAAAAECLYAQAAAECIYAcAAAAAIYIdAAAAAIQIdgAAAAAQItgBAAAAQIhgBwAAAAAhgh0AAAAAhAh2AAAAABAi2AEAAABAiGAHAAAAACGCHQAAAACECHYAAAAAECLYAQAAAECIYAcAAAAAIYIdAAAAAIQIdgAAAAAQItgBAAAAQIhgBwAAAAAhgh0AAAAAhAh2AAAAABAi2AEAAABAiGAHAAAAACGCHQAAAACECHYAAAAAECLYAQAAAECIYAcAAAAAIZ/pAUDFvXfkueecVc/dts5TvN83pua7zbbzyxvuqze2zXfKtnty23x5Y9u9QZ8v7AAAAAAgRLADAAAAgBDBDgAAAABCBDsAAAAACBHsAAAAACBEsAMAAACAEMEOAAAAAEIEOwAA/tOuHaTKjUMBFEXg/W9ZGWQWyKTp73fjd84GLKkkubgYAIAQwQ4AAAAAQgQ7AAAAAAgR7AAAAAAgRLADAAAAgBDBDgAAAABCBDsAAAAACBHsAAAAACBEsAMAAACAEMEOAAAAAEIEOwAAAAAIEewAAAAAIESwAwAAAIAQwQ4AAAAAQgQ7AAAAAAgR7AAAAAAgRLADAAAAgBDBDgAAAABCBDsAAAAACBHsAAAAACBEsAMAAACAEMEOAAAAAEKe6QHAdvfekeeec0aeO2XbOk/Nd8q2+cKXuCffYZ2/zf+cd2z7/7zt94UaX9gBAAAAQIhgBwAAAAAhgh0AAAAAhAh2AAAAABAi2AEAAABAiGAHAAAAACGCHQAAAACECHYAAAAAECLYAQAAAECIYAcAAAAAIYIdAAAAAIQIdgAAAAAQItgBAAAAQIhgBwAAAAAhgh0AAAAAhAh2AAAAABAi2AEAAABAiGAHAAAAACGCHQAAAACECHYAAAAAECLYAQAAAECIYAcAAAAAIYIdAAAAAIQIdgAAAAAQItgBAAAAQIhgBwAAAAAhgh0AAAAAhAh2AAAAABAi2AEAAABAyDM9AKg450wPgR/k9/02v++33Xunh7DC1Dna9vtOzXfq93U/8xPsq3dsu5+9B6nxhR0AAAAAhAh2AAAAABAi2AEAAABAiGAHAAAAACGCHQAAAACECHYAAAAAECLYAQAAAECIYAcAAAAAIYIdAAAAAIQIdgAAAAAQItgBAAAAQIhgBwAAAAAhgh0AAAAAhAh2AAAAABAi2AEAAABAiGAHAAAAACGCHQAAAACECHYAAAAAECLYAQAAAECIYAcAAAAAIYIdAAAAAIQIdgAAAAAQItgBAAAAQIhgBwAAAAAhgh0AAAAAhAh2AAAAABAi2AEAAABAiGAHAAAAACGCHQAAAACEnHvvnR4EAP+vc870EF419Sqzzu+YWmfz/bZt53cb55ef4N54h/MLv/nCDgAAAABCBDsAAAAACBHsAAAAACBEsAMAAACAEMEOAAAAAEIEOwAAAAAIEewAAAAAIESwAwAAAIAQwQ4AAAAAQgQ7AAAAAAgR7AAAAAAgRLADAAAAgBDBDgAAAABCBDsAAAAACBHsAAAAACBEsAMAAACAEMEOAAAAAEIEOwAAAAAIEewAAAAAIESwAwAAAIAQwQ4AAAAAQgQ7AAAAAAgR7AAAAAAgRLADAAAAgBDBDgAAAABCBDsAAAAACBHsAAAAACBEsAMAAACAEMEOAAAAAEKe6QHQdc6ZHgL88+6900N41dR8p+6rbfO1zt+2bb7b7udttu3nKdveC9tse//aV9T4wg4AAAAAQgQ7AAAAAAgR7AAAAAAgRLADAAAAgBDBDgAAAABCBDsAAAAACBHsAAAAACBEsAMAAACAEMEOAAAAAEIEOwAAAAAIEewAAAAAIESwAwAAAIAQwQ4AAAAAQgQ7AAAAAAgR7AAAAAAgRLADAAAAgBDBDgAAAABCBDsAAAAACBHsAAAAACBEsAMAAACAEMEOAAAAAEIEOwAAAAAIEewAAAAAIESwAwAAAIAQwQ4AAAAAQgQ7AAAAAAgR7AAAAAAgRLADAAAAgBDBDgAAAABCnukBwJ/uvdND4IPOOdNDeNXUOZpa523znbLtft62r7bNd8q2+W67N7bx+37btvcR1PjCDgAAAABCBDsAAAAACBHsAAAAACBEsAMAAACAEMEOAAAAAEIEOwAAAAAIEewAAAAAIESwAwAAAIAQwQ4AAAAAQgQ7AAAAAAgR7AAAAAAgRLADAAAAgBDBDgAAAABCBDsAAAAACBHsAAAAACBEsAMAAACAEMEOAAAAAEIEOwAAAAAIEewAAAAAIESwAwAAAIAQwQ4AAAAAQgQ7AAAAAAgR7AAAAAAgRLADAAAAgBDBDgAAAABCBDsAAAAACBHsAAAAACBEsAMAAACAEMEOAAAAAEKe6QG6wVqcAAAI1klEQVRAxTlneggr3Hunh7CC/fwO+/kdU/t56vedeu62dd7GvnrH1Hy99/kJ2+7nbfcVfb6wAwAAAIAQwQ4AAAAAQgQ7AAAAAAgR7AAAAAAgRLADAAAAgBDBDgAAAABCBDsAAAAACBHsAAAAACBEsAMAAACAEMEOAAAAAEIEOwAAAAAIEewAAAAAIESwAwAAAIAQwQ4AAAAAQgQ7AAAAAAgR7AAAAAAgRLADAAAAgBDBDgAAAABCBDsAAAAACBHsAAAAACBEsAMAAACAEMEOAAAAAEIEOwAAAAAIEewAAAAAIESwAwAAAIAQwQ4AAAAAQgQ7AAAAAAgR7AAAAAAgRLADAAAAgJBnegAAfMe9d3oIrzrnjDx32zpvm++UqXWeOke8Y9u+Mt93uDfesW1f+b9BjS/sAAAAACBEsAMAAACAEMEOAAAAAEIEOwAAAAAIEewAAAAAIESwAwAAAIAQwQ4AAAAAQgQ7AAAAAAgR7AAAAAAgRLADAAAAgBDBDgAAAABCBDsAAAAACBHsAAAAACBEsAMAAACAEMEOAAAAAEIEOwAAAAAIEewAAAAAIESwAwAAAIAQwQ4AAAAAQgQ7AAAAAAgR7AAAAAAgRLADAAAAgBDBDgAAAABCBDsAAAAACBHsAAAAACBEsAMAAACAEMEOAAAAAEIEOwAAAAAIEewAAAAAIOSZHgAA33HOGXnuvXfVc6fWmW/bdo6mbDu/2+Y7xfvoHdvW2Xxhli/sAAAAACBEsAMAAACAEMEOAAAAAEIEOwAAAAAIEewAAAAAIESwAwAAAIAQwQ4AAAAAQgQ7AAAAAAgR7AAAAAAgRLADAAAAgBDBDgAAAABCBDsAAAAACBHsAAAAACBEsAMAAACAEMEOAAAAAEIEOwAAAAAIEewAAAAAIESwAwAAAIAQwQ4AAAAAQgQ7AAAAAAgR7AAAAAAgRLADAAAAgBDBDgAAAABCBDsAAAAACBHsAAAAACBEsAMAAACAEMEOAAAAAEIEOwAAAAAIEewAAAAAIOSZHgBU3HunhwD/vKlzdM4Zee4U99U7tu0rvm3bfnZPvmPbOm87R1Pz3bav4G98YQcAAAAAIYIdAAAAAIQIdgAAAAAQItgBAAAAQIhgBwAAAAAhgh0AAAAAhAh2AAAAABAi2AEAAABAiGAHAAAAACGCHQAAAACECHYAAAAAECLYAQAAAECIYAcAAAAAIYIdAAAAAIQIdgAAAAAQItgBAAAAQIhgBwAAAAAhgh0AAAAAhAh2AAAAABAi2AEAAABAiGAHAAAAACGCHQAAAACECHYAAAAAECLYAQAAAECIYAcAAAAAIYIdAAAAAIQIdgAAAAAQItgBAAAAQIhgBwAAAAAhz/QA4E/nnOkhAP/RtvN77x157rZ13mbbvpqa7zbb9pV78tum9vO2c2S+MMsXdgAAAAAQItgBAAAAQIhgBwAAAAAhgh0AAAAAhAh2AAAAABAi2AEAAABAiGAHAAAAACGCHQAAAACECHYAAAAAECLYAQAAAECIYAcAAAAAIYIdAAAAAIQIdgAAAAAQItgBAAAAQIhgBwAAAAAhgh0AAAAAhAh2AAAAABAi2AEAAABAiGAHAAAAACGCHQAAAACECHYAAAAAECLYAQAAAECIYAcAAAAAIYIdAAAAAIQIdgAAAAAQItgBAAAAQIhgBwAAAAAhgh0AAAAAhAh2AAAAABBy7r13ehAAAAAAwG++sAMAAACAEMEOAAAAAEIEOwAAAAAIEewAAAAAIESwAwAAAIAQwQ4AAAAAQgQ7AAAAAAgR7AAAAAAgRLADAAAAgBDBDgAAAABCBDsAAAAACBHsAAAAACBEsAMAAACAEMEOAAAAAEIEOwAAAAAIEewAAAAAIESwAwAAAIAQwQ4AAAAAQgQ7AAAAAAgR7AAAAAAgRLADAAAAgBDBDgAAAABCBDsAAAAACBHsAAAAACBEsAMAAACAEMEOAAAAAEIEOwAAAAAIEewAAAAAIESwAwAAAIAQwQ4AAAAAQgQ7AAAAAAgR7AAAAAAgRLADAAAAgBDBDgAAAABCBDsAAAAACBHsAAAAACBEsAMAAACAEMEOAAAAAEIEOwAAAAAIEewAAAAAIESwAwAAAIAQwQ4AAAAAQgQ7AAAAAAgR7AAAAAAgRLADAAAAgBDBDgAAAABCBDsAAAAACBHsAAAAACBEsAMAAACAEMEOAAAAAEIEOwAAAAAIEewAAAAAIESwAwAAAIAQwQ4AAAAAQgQ7AAAAAAgR7AAAAAAgRLADAAAAgBDBDgAAAABCBDsAAAAACBHsAAAAACBEsAMAAACAEMEOAAAAAEIEOwAAAAAIEewAAAAAIESwAwAAAIAQwQ4AAAAAQgQ7AAAAAAgR7AAAAAAgRLADAAAAgBDBDgAAAABCBDsAAAAACBHsAAAAACBEsAMAAACAEMEOAAAAAEIEOwAAAAAIEewAAAAAIESwAwAAAIAQwQ4AAAAAQgQ7AAAAAAgR7AAAAAAgRLADAAAAgBDBDgAAAABCBDsAAAAACBHsAAAAACBEsAMAAACAEMEOAAAAAEIEOwAAAAAIEewAAAAAIESwAwAAAIAQwQ4AAAAAQgQ7AAAAAAgR7AAAAAAgRLADAAAAgBDBDgAAAABCBDsAAAAACBHsAAAAACBEsAMAAACAEMEOAAAAAEIEOwAAAAAIEewAAAAAIESwAwAAAIAQwQ4AAAAAQgQ7AAAAAAgR7AAAAAAgRLADAAAAgBDBDgAAAABCBDsAAAAACBHsAAAAACBEsAMAAACAEMEOAAAAAEIEOwAAAAAIEewAAAAAIESwAwAAAIAQwQ4AAAAAQgQ7AAAAAAgR7AAAAAAgRLADAAAAgBDBDgAAAABCBDsAAAAACBHsAAAAACBEsAMAAACAEMEOAAAAAEIEOwAAAAAIEewAAAAAIESwAwAAAIAQwQ4AAAAAQgQ7AAAAAAgR7AAAAAAgRLADAAAAgBDBDgAAAABCBDsAAAAACBHsAAAAACBEsAMAAACAEMEOAAAAAEJ+AUVkBP1hfVpdAAAAAElFTkSuQmCC;" parent="1" vertex="1">
          <mxGeometry x="650" y="30" width="150" height="150" as="geometry" />
        </mxCell>
        <mxCell id="P47pTHpwBbHtv2b1lyid-32" value="" style="group" parent="1" vertex="1" connectable="0">
          <mxGeometry x="420" y="190" width="380" height="380" as="geometry" />
        </mxCell>
        <mxCell id="P47pTHpwBbHtv2b1lyid-10" value="" style="rounded=0;whiteSpace=wrap;html=1;" parent="P47pTHpwBbHtv2b1lyid-32" vertex="1">
          <mxGeometry width="380" height="280" as="geometry" />
        </mxCell>
        <mxCell id="P47pTHpwBbHtv2b1lyid-1" value="" style="whiteSpace=wrap;html=1;aspect=fixed;" parent="P47pTHpwBbHtv2b1lyid-32" vertex="1">
          <mxGeometry x="300" y="210" width="60" height="60" as="geometry" />
        </mxCell>
        <mxCell id="P47pTHpwBbHtv2b1lyid-2" value="" style="verticalLabelPosition=bottom;shadow=0;dashed=0;align=center;html=1;verticalAlign=top;shape=mxgraph.electrical.transmission.terminal_3_phase;pointerEvents=1;" parent="P47pTHpwBbHtv2b1lyid-32" vertex="1">
          <mxGeometry x="308.5" y="235" width="43" height="10" as="geometry" />
        </mxCell>
        <mxCell id="P47pTHpwBbHtv2b1lyid-3" value="" style="whiteSpace=wrap;html=1;aspect=fixed;" parent="P47pTHpwBbHtv2b1lyid-32" vertex="1">
          <mxGeometry x="180" y="210" width="60" height="60" as="geometry" />
        </mxCell>
        <mxCell id="P47pTHpwBbHtv2b1lyid-4" value="" style="verticalLabelPosition=bottom;shadow=0;dashed=0;align=center;html=1;verticalAlign=top;shape=mxgraph.electrical.transmission.terminal_3_phase;pointerEvents=1;" parent="P47pTHpwBbHtv2b1lyid-32" vertex="1">
          <mxGeometry x="188.5" y="235" width="43" height="10" as="geometry" />
        </mxCell>
        <mxCell id="P47pTHpwBbHtv2b1lyid-8" value="" style="whiteSpace=wrap;html=1;aspect=fixed;" parent="P47pTHpwBbHtv2b1lyid-32" vertex="1">
          <mxGeometry x="60" y="210" width="60" height="60" as="geometry" />
        </mxCell>
        <mxCell id="P47pTHpwBbHtv2b1lyid-9" value="" style="verticalLabelPosition=bottom;shadow=0;dashed=0;align=center;html=1;verticalAlign=top;shape=mxgraph.electrical.transmission.terminal_3_phase;pointerEvents=1;" parent="P47pTHpwBbHtv2b1lyid-32" vertex="1">
          <mxGeometry x="68.5" y="235" width="43" height="10" as="geometry" />
        </mxCell>
        <mxCell id="P47pTHpwBbHtv2b1lyid-11" value="" style="pointerEvents=1;verticalLabelPosition=bottom;shadow=0;dashed=0;align=center;html=1;verticalAlign=top;shape=mxgraph.electrical.inductors.transformer_1;direction=south;" parent="P47pTHpwBbHtv2b1lyid-32" vertex="1">
          <mxGeometry x="49.5" y="129" width="60" height="64" as="geometry" />
        </mxCell>
        <mxCell id="P47pTHpwBbHtv2b1lyid-12" value="" style="pointerEvents=1;verticalLabelPosition=bottom;shadow=0;dashed=0;align=center;html=1;verticalAlign=top;shape=mxgraph.electrical.inductors.transformer_1;direction=south;" parent="P47pTHpwBbHtv2b1lyid-32" vertex="1">
          <mxGeometry x="171.5" y="129" width="60" height="64" as="geometry" />
        </mxCell>
        <mxCell id="P47pTHpwBbHtv2b1lyid-13" value="" style="pointerEvents=1;verticalLabelPosition=bottom;shadow=0;dashed=0;align=center;html=1;verticalAlign=top;shape=mxgraph.electrical.inductors.transformer_1;direction=south;" parent="P47pTHpwBbHtv2b1lyid-32" vertex="1">
          <mxGeometry x="291.5" y="129" width="60" height="64" as="geometry" />
        </mxCell>
        <mxCell id="P47pTHpwBbHtv2b1lyid-14" value="&lt;b&gt;&lt;font style=&quot;font-size: 20px&quot;&gt;Routeur - carte-mère&lt;/font&gt;&lt;/b&gt;" style="text;html=1;strokeColor=none;fillColor=none;align=center;verticalAlign=middle;whiteSpace=wrap;rounded=0;" parent="P47pTHpwBbHtv2b1lyid-32" vertex="1">
          <mxGeometry x="10" width="360" height="30" as="geometry" />
        </mxCell>
        <mxCell id="P47pTHpwBbHtv2b1lyid-16" value="" style="html=1;entryX=0.12;entryY=1;entryDx=0;entryDy=0;entryPerimeter=0;strokeWidth=4;strokeColor=#663300;endArrow=none;endFill=0;" parent="P47pTHpwBbHtv2b1lyid-32" target="P47pTHpwBbHtv2b1lyid-9" edge="1">
          <mxGeometry width="100" relative="1" as="geometry">
            <mxPoint x="74" y="360" as="sourcePoint" />
            <mxPoint x="120" y="340" as="targetPoint" />
          </mxGeometry>
        </mxCell>
        <mxCell id="P47pTHpwBbHtv2b1lyid-19" value="" style="html=1;entryX=0.12;entryY=1;entryDx=0;entryDy=0;entryPerimeter=0;strokeWidth=4;strokeColor=#B3B3B3;endArrow=none;endFill=0;" parent="P47pTHpwBbHtv2b1lyid-32" target="P47pTHpwBbHtv2b1lyid-2" edge="1">
          <mxGeometry width="100" relative="1" as="geometry">
            <mxPoint x="314" y="360" as="sourcePoint" />
            <mxPoint x="310.0000000000001" y="245" as="targetPoint" />
          </mxGeometry>
        </mxCell>
        <mxCell id="P47pTHpwBbHtv2b1lyid-20" value="" style="html=1;entryX=0.5;entryY=1;entryDx=0;entryDy=0;entryPerimeter=0;strokeWidth=4;exitX=0.5;exitY=0;exitDx=0;exitDy=0;strokeColor=#0000FF;endArrow=none;endFill=0;" parent="P47pTHpwBbHtv2b1lyid-32" source="P47pTHpwBbHtv2b1lyid-26" target="P47pTHpwBbHtv2b1lyid-9" edge="1">
          <mxGeometry width="100" relative="1" as="geometry">
            <mxPoint x="280" y="340" as="sourcePoint" />
            <mxPoint x="150.0000000000001" y="255" as="targetPoint" />
            <Array as="points">
              <mxPoint x="210" y="310" />
              <mxPoint x="90" y="310" />
            </Array>
          </mxGeometry>
        </mxCell>
        <mxCell id="P47pTHpwBbHtv2b1lyid-18" value="" style="html=1;entryX=0.12;entryY=1;entryDx=0;entryDy=0;entryPerimeter=0;strokeWidth=4;strokeColor=#FF0000;endArrow=none;endFill=0;exitX=0.5;exitY=0;exitDx=0;exitDy=0;" parent="P47pTHpwBbHtv2b1lyid-32" source="P47pTHpwBbHtv2b1lyid-25" target="P47pTHpwBbHtv2b1lyid-4" edge="1">
          <mxGeometry width="100" relative="1" as="geometry">
            <mxPoint x="194" y="360" as="sourcePoint" />
            <mxPoint x="190.0000000000001" y="255" as="targetPoint" />
            <Array as="points">
              <mxPoint x="170" y="330" />
              <mxPoint x="194" y="330" />
            </Array>
          </mxGeometry>
        </mxCell>
        <mxCell id="P47pTHpwBbHtv2b1lyid-22" value="" style="html=1;entryX=0.5;entryY=1;entryDx=0;entryDy=0;entryPerimeter=0;strokeWidth=4;strokeColor=#0000FF;endArrow=none;endFill=0;" parent="P47pTHpwBbHtv2b1lyid-32" target="P47pTHpwBbHtv2b1lyid-4" edge="1">
          <mxGeometry width="100" relative="1" as="geometry">
            <mxPoint x="210" y="360" as="sourcePoint" />
            <mxPoint x="203.66000000000008" y="255" as="targetPoint" />
          </mxGeometry>
        </mxCell>
        <mxCell id="P47pTHpwBbHtv2b1lyid-23" value="&lt;b&gt;&lt;font style=&quot;font-size: 16px&quot;&gt;L1&lt;/font&gt;&lt;/b&gt;" style="text;html=1;strokeColor=none;fillColor=none;align=center;verticalAlign=middle;whiteSpace=wrap;rounded=0;" parent="P47pTHpwBbHtv2b1lyid-32" vertex="1">
          <mxGeometry x="49.5" y="360" width="40" height="20" as="geometry" />
        </mxCell>
        <mxCell id="P47pTHpwBbHtv2b1lyid-24" value="&lt;b&gt;&lt;font style=&quot;font-size: 16px&quot;&gt;L3&lt;/font&gt;&lt;/b&gt;" style="text;html=1;strokeColor=none;fillColor=none;align=center;verticalAlign=middle;whiteSpace=wrap;rounded=0;" parent="P47pTHpwBbHtv2b1lyid-32" vertex="1">
          <mxGeometry x="291.5" y="360" width="40" height="20" as="geometry" />
        </mxCell>
        <mxCell id="P47pTHpwBbHtv2b1lyid-25" value="&lt;b&gt;&lt;font style=&quot;font-size: 16px&quot;&gt;L2&lt;/font&gt;&lt;/b&gt;" style="text;html=1;strokeColor=none;fillColor=none;align=center;verticalAlign=middle;whiteSpace=wrap;rounded=0;" parent="P47pTHpwBbHtv2b1lyid-32" vertex="1">
          <mxGeometry x="150" y="360" width="40" height="20" as="geometry" />
        </mxCell>
        <mxCell id="P47pTHpwBbHtv2b1lyid-26" value="&lt;b&gt;&lt;font style=&quot;font-size: 16px&quot;&gt;N&lt;/font&gt;&lt;/b&gt;" style="text;html=1;strokeColor=none;fillColor=none;align=center;verticalAlign=middle;whiteSpace=wrap;rounded=0;" parent="P47pTHpwBbHtv2b1lyid-32" vertex="1">
          <mxGeometry x="190" y="360" width="40" height="20" as="geometry" />
        </mxCell>
        <mxCell id="P47pTHpwBbHtv2b1lyid-29" value="" style="pointerEvents=1;verticalLabelPosition=bottom;shadow=0;dashed=0;align=center;html=1;verticalAlign=top;shape=mxgraph.electrical.signal_sources.protective_earth;" parent="P47pTHpwBbHtv2b1lyid-32" vertex="1">
          <mxGeometry x="230" y="360" width="25" height="20" as="geometry" />
        </mxCell>
        <mxCell id="P47pTHpwBbHtv2b1lyid-31" value="" style="html=1;strokeWidth=4;exitX=0.88;exitY=1;exitDx=0;exitDy=0;exitPerimeter=0;entryX=0.5;entryY=0;entryDx=0;entryDy=0;entryPerimeter=0;strokeColor=#00FF00;endArrow=none;endFill=0;" parent="P47pTHpwBbHtv2b1lyid-32" source="P47pTHpwBbHtv2b1lyid-4" target="P47pTHpwBbHtv2b1lyid-29" edge="1">
          <mxGeometry width="100" relative="1" as="geometry">
            <mxPoint x="-60" y="180" as="sourcePoint" />
            <mxPoint x="40" y="180" as="targetPoint" />
            <Array as="points">
              <mxPoint x="226" y="300" />
              <mxPoint x="243" y="300" />
            </Array>
          </mxGeometry>
        </mxCell>
        <mxCell id="_YcDlDGD7Q-Z-5NjXwbV-58" value="" style="html=1;entryX=0.5;entryY=1;entryDx=0;entryDy=0;entryPerimeter=0;strokeWidth=4;exitX=0.5;exitY=0;exitDx=0;exitDy=0;strokeColor=#0000FF;endArrow=none;endFill=0;" parent="P47pTHpwBbHtv2b1lyid-32" source="P47pTHpwBbHtv2b1lyid-26" target="P47pTHpwBbHtv2b1lyid-2" edge="1">
          <mxGeometry width="100" relative="1" as="geometry">
            <mxPoint x="220" y="370" as="sourcePoint" />
            <mxPoint x="100" y="255" as="targetPoint" />
            <Array as="points">
              <mxPoint x="210" y="310" />
              <mxPoint x="330" y="310" />
            </Array>
          </mxGeometry>
        </mxCell>
        <mxCell id="_YcDlDGD7Q-Z-5NjXwbV-61" value="&lt;b&gt;&lt;font style=&quot;font-size: 16px&quot;&gt;L1&lt;/font&gt;&lt;/b&gt;" style="text;html=1;strokeColor=none;fillColor=none;align=center;verticalAlign=middle;whiteSpace=wrap;rounded=0;" parent="P47pTHpwBbHtv2b1lyid-32" vertex="1">
          <mxGeometry x="70" y="193" width="40" height="20" as="geometry" />
        </mxCell>
        <mxCell id="_YcDlDGD7Q-Z-5NjXwbV-63" value="&lt;b&gt;&lt;font style=&quot;font-size: 16px&quot;&gt;L2&lt;/font&gt;&lt;/b&gt;" style="text;html=1;strokeColor=none;fillColor=none;align=center;verticalAlign=middle;whiteSpace=wrap;rounded=0;" parent="P47pTHpwBbHtv2b1lyid-32" vertex="1">
          <mxGeometry x="190" y="193" width="40" height="20" as="geometry" />
        </mxCell>
        <mxCell id="_YcDlDGD7Q-Z-5NjXwbV-64" value="&lt;b&gt;&lt;font style=&quot;font-size: 16px&quot;&gt;L3&lt;br&gt;&lt;/font&gt;&lt;/b&gt;" style="text;html=1;strokeColor=none;fillColor=none;align=center;verticalAlign=middle;whiteSpace=wrap;rounded=0;" parent="P47pTHpwBbHtv2b1lyid-32" vertex="1">
          <mxGeometry x="310" y="193" width="40" height="20" as="geometry" />
        </mxCell>
        <mxCell id="_YcDlDGD7Q-Z-5NjXwbV-30" value="" style="group" parent="1" vertex="1" connectable="0">
          <mxGeometry x="349" y="650" width="460" height="470" as="geometry" />
        </mxCell>
        <mxCell id="X5zUQhGE-58T7xV7t1pe-2" value="" style="ellipse;whiteSpace=wrap;html=1;dashed=1;strokeWidth=3;" parent="_YcDlDGD7Q-Z-5NjXwbV-30" vertex="1">
          <mxGeometry x="101" y="300" width="89" height="40" as="geometry" />
        </mxCell>
        <mxCell id="_YcDlDGD7Q-Z-5NjXwbV-3" value="" style="whiteSpace=wrap;html=1;aspect=fixed;fillColor=#fa6800;strokeColor=#C73500;fontColor=#ffffff;" parent="_YcDlDGD7Q-Z-5NjXwbV-30" vertex="1">
          <mxGeometry x="345" y="130" width="60" height="60" as="geometry" />
        </mxCell>
        <mxCell id="_YcDlDGD7Q-Z-5NjXwbV-4" value="" style="verticalLabelPosition=bottom;shadow=0;dashed=0;align=center;html=1;verticalAlign=top;shape=mxgraph.electrical.transmission.terminal_3_phase;pointerEvents=1;" parent="_YcDlDGD7Q-Z-5NjXwbV-30" vertex="1">
          <mxGeometry x="353.5" y="155" width="43" height="10" as="geometry" />
        </mxCell>
        <mxCell id="_YcDlDGD7Q-Z-5NjXwbV-5" value="Connecteur TRIAC orange&lt;br&gt;Borne du milieu non connectée" style="shape=callout;whiteSpace=wrap;html=1;perimeter=calloutPerimeter;" parent="_YcDlDGD7Q-Z-5NjXwbV-30" vertex="1">
          <mxGeometry x="290" y="50" width="170" height="80" as="geometry" />
        </mxCell>
        <mxCell id="_YcDlDGD7Q-Z-5NjXwbV-6" value="" style="verticalLabelPosition=bottom;dashed=0;shadow=0;html=1;align=center;verticalAlign=top;shape=mxgraph.cabinets.surge_protection_2p;" parent="_YcDlDGD7Q-Z-5NjXwbV-30" vertex="1">
          <mxGeometry x="31" y="120" width="50" height="120" as="geometry" />
        </mxCell>
        <mxCell id="_YcDlDGD7Q-Z-5NjXwbV-7" value="Disjoncteur&lt;br&gt;Charge #n" style="shape=callout;whiteSpace=wrap;html=1;perimeter=calloutPerimeter;" parent="_YcDlDGD7Q-Z-5NjXwbV-30" vertex="1">
          <mxGeometry x="21" y="40" width="70" height="80" as="geometry" />
        </mxCell>
        <mxCell id="_YcDlDGD7Q-Z-5NjXwbV-8" value="" style="pointerEvents=1;verticalLabelPosition=bottom;shadow=0;dashed=0;align=center;html=1;verticalAlign=top;shape=mxgraph.electrical.resistors.resistor_2;" parent="_YcDlDGD7Q-Z-5NjXwbV-30" vertex="1">
          <mxGeometry x="267" y="370" width="100" height="20" as="geometry" />
        </mxCell>
        <mxCell id="_YcDlDGD7Q-Z-5NjXwbV-9" value="Charge #n" style="shape=callout;whiteSpace=wrap;html=1;perimeter=calloutPerimeter;direction=west;" parent="_YcDlDGD7Q-Z-5NjXwbV-30" vertex="1">
          <mxGeometry x="257" y="390" width="120" height="80" as="geometry" />
        </mxCell>
        <mxCell id="_YcDlDGD7Q-Z-5NjXwbV-12" value="" style="html=1;exitX=0.24;exitY=-0.017;exitDx=0;exitDy=0;exitPerimeter=0;entryX=0.22;entryY=0.958;entryDx=0;entryDy=0;entryPerimeter=0;strokeWidth=4;fillColor=#0050ef;strokeColor=#0000FF;endArrow=none;endFill=0;" parent="_YcDlDGD7Q-Z-5NjXwbV-30" source="_YcDlDGD7Q-Z-5NjXwbV-15" target="_YcDlDGD7Q-Z-5NjXwbV-6" edge="1">
          <mxGeometry x="-110" y="50" width="100" as="geometry">
            <mxPoint x="12.839999999999918" y="297.5" as="sourcePoint" />
            <mxPoint x="-75" y="402.5" as="targetPoint" />
            <Array as="points">
              <mxPoint x="162" y="110" />
              <mxPoint x="130" y="110" />
              <mxPoint x="130" y="320" />
              <mxPoint x="42" y="320" />
            </Array>
          </mxGeometry>
        </mxCell>
        <mxCell id="_YcDlDGD7Q-Z-5NjXwbV-13" value="" style="html=1;strokeWidth=4;fillColor=#0050ef;strokeColor=#0000FF;endArrow=none;endFill=0;" parent="_YcDlDGD7Q-Z-5NjXwbV-30" edge="1">
          <mxGeometry x="-4" y="40" width="100" as="geometry">
            <mxPoint x="41" y="130" as="sourcePoint" />
            <mxPoint x="41" y="100" as="targetPoint" />
            <Array as="points">
              <mxPoint x="41" y="130.03999999999996" />
            </Array>
          </mxGeometry>
        </mxCell>
        <mxCell id="_YcDlDGD7Q-Z-5NjXwbV-14" value="" style="html=1;strokeWidth=4;fillColor=#0050ef;strokeColor=#FF0000;endArrow=none;endFill=0;" parent="_YcDlDGD7Q-Z-5NjXwbV-30" edge="1">
          <mxGeometry x="-4" y="40" width="100" as="geometry">
            <mxPoint x="71" y="130" as="sourcePoint" />
            <mxPoint x="71" y="100" as="targetPoint" />
            <Array as="points">
              <mxPoint x="71" y="130.03999999999996" />
              <mxPoint x="71" y="120" />
            </Array>
          </mxGeometry>
        </mxCell>
        <mxCell id="_YcDlDGD7Q-Z-5NjXwbV-15" value="" style="verticalLabelPosition=bottom;dashed=0;shadow=0;html=1;align=center;verticalAlign=top;shape=mxgraph.cabinets.surge_protection_2p;" parent="_YcDlDGD7Q-Z-5NjXwbV-30" vertex="1">
          <mxGeometry x="150" y="130" width="50" height="120" as="geometry" />
        </mxCell>
        <mxCell id="_YcDlDGD7Q-Z-5NjXwbV-20" value="" style="html=1;exitX=0.76;exitY=-0.017;exitDx=0;exitDy=0;exitPerimeter=0;entryX=0.7;entryY=1;entryDx=0;entryDy=0;entryPerimeter=0;fillColor=#a20025;strokeWidth=4;strokeColor=#FF0000;endArrow=none;endFill=0;" parent="_YcDlDGD7Q-Z-5NjXwbV-30" source="_YcDlDGD7Q-Z-5NjXwbV-15" target="_YcDlDGD7Q-Z-5NjXwbV-6" edge="1">
          <mxGeometry width="100" relative="1" as="geometry">
            <mxPoint x="274.3399999999999" y="210" as="sourcePoint" />
            <mxPoint x="210" y="345" as="targetPoint" />
            <Array as="points">
              <mxPoint x="188" y="100" />
              <mxPoint x="110" y="100" />
              <mxPoint x="110" y="300" />
              <mxPoint x="66" y="300" />
            </Array>
          </mxGeometry>
        </mxCell>
        <mxCell id="_YcDlDGD7Q-Z-5NjXwbV-23" value="&lt;span style=&quot;color: rgb(0 , 0 , 0) ; font-family: &amp;#34;helvetica&amp;#34; ; font-size: 12px ; font-style: normal ; font-weight: 400 ; letter-spacing: normal ; text-align: center ; text-indent: 0px ; text-transform: none ; word-spacing: 0px ; background-color: rgb(248 , 249 , 250) ; display: inline ; float: none&quot;&gt;Contacteur&lt;/span&gt;&lt;br style=&quot;color: rgb(0 , 0 , 0) ; font-family: &amp;#34;helvetica&amp;#34; ; font-size: 12px ; font-style: normal ; font-weight: 400 ; letter-spacing: normal ; text-align: center ; text-indent: 0px ; text-transform: none ; word-spacing: 0px ; background-color: rgb(248 , 249 , 250)&quot;&gt;&lt;span style=&quot;color: rgb(0 , 0 , 0) ; font-family: &amp;#34;helvetica&amp;#34; ; font-size: 12px ; font-style: normal ; font-weight: 400 ; letter-spacing: normal ; text-align: center ; text-indent: 0px ; text-transform: none ; word-spacing: 0px ; background-color: rgb(248 , 249 , 250) ; display: inline ; float: none&quot;&gt;Jour/Nuit&lt;/span&gt;&lt;br&gt;" style="rounded=0;whiteSpace=wrap;html=1;" parent="_YcDlDGD7Q-Z-5NjXwbV-30" vertex="1">
          <mxGeometry x="145" y="30" width="60" height="60" as="geometry" />
        </mxCell>
        <mxCell id="_YcDlDGD7Q-Z-5NjXwbV-25" value="" style="html=1;exitX=0.12;exitY=1;exitDx=0;exitDy=0;exitPerimeter=0;fillColor=#a20025;strokeWidth=4;strokeColor=#FF0000;endArrow=none;endFill=0;entryX=0.76;entryY=-0.008;entryDx=0;entryDy=0;entryPerimeter=0;" parent="_YcDlDGD7Q-Z-5NjXwbV-30" source="_YcDlDGD7Q-Z-5NjXwbV-4" target="_YcDlDGD7Q-Z-5NjXwbV-15" edge="1">
          <mxGeometry width="100" relative="1" as="geometry">
            <mxPoint x="478" y="182.96000000000004" as="sourcePoint" />
            <mxPoint x="190" y="100" as="targetPoint" />
            <Array as="points">
              <mxPoint x="359" y="250" />
              <mxPoint x="270" y="250" />
              <mxPoint x="270" y="100" />
              <mxPoint x="188" y="100" />
            </Array>
          </mxGeometry>
        </mxCell>
        <mxCell id="_YcDlDGD7Q-Z-5NjXwbV-26" value="" style="html=1;exitX=0.88;exitY=1;exitDx=0;exitDy=0;exitPerimeter=0;fillColor=#a20025;strokeWidth=4;strokeColor=#FF0000;endArrow=none;endFill=0;entryX=1;entryY=0.5;entryDx=0;entryDy=0;entryPerimeter=0;" parent="_YcDlDGD7Q-Z-5NjXwbV-30" source="_YcDlDGD7Q-Z-5NjXwbV-4" target="_YcDlDGD7Q-Z-5NjXwbV-8" edge="1">
          <mxGeometry width="100" relative="1" as="geometry">
            <mxPoint x="555.6600000000001" y="260" as="sourcePoint" />
            <mxPoint x="240" y="330" as="targetPoint" />
            <Array as="points">
              <mxPoint x="391" y="300" />
              <mxPoint x="391" y="380" />
            </Array>
          </mxGeometry>
        </mxCell>
        <mxCell id="_YcDlDGD7Q-Z-5NjXwbV-27" value="" style="html=1;fillColor=#a20025;strokeWidth=4;strokeColor=#FF0000;endArrow=none;endFill=0;entryX=0.72;entryY=1;entryDx=0;entryDy=0;entryPerimeter=0;exitX=1;exitY=0.5;exitDx=0;exitDy=0;exitPerimeter=0;" parent="_YcDlDGD7Q-Z-5NjXwbV-30" source="_YcDlDGD7Q-Z-5NjXwbV-8" target="_YcDlDGD7Q-Z-5NjXwbV-15" edge="1">
          <mxGeometry width="100" relative="1" as="geometry">
            <mxPoint x="250" y="410" as="sourcePoint" />
            <mxPoint x="255" y="420" as="targetPoint" />
            <Array as="points">
              <mxPoint x="391" y="380" />
              <mxPoint x="391" y="300" />
              <mxPoint x="186" y="300" />
            </Array>
          </mxGeometry>
        </mxCell>
        <mxCell id="_YcDlDGD7Q-Z-5NjXwbV-28" value="" style="html=1;exitX=0.26;exitY=0.992;exitDx=0;exitDy=0;exitPerimeter=0;entryX=0;entryY=0.5;entryDx=0;entryDy=0;entryPerimeter=0;strokeWidth=4;fillColor=#0050ef;strokeColor=#0000FF;endArrow=none;endFill=0;" parent="_YcDlDGD7Q-Z-5NjXwbV-30" source="_YcDlDGD7Q-Z-5NjXwbV-15" target="_YcDlDGD7Q-Z-5NjXwbV-8" edge="1">
          <mxGeometry x="-100" y="60" width="100" as="geometry">
            <mxPoint x="172" y="137.96000000000004" as="sourcePoint" />
            <mxPoint x="-54" y="254.96000000000004" as="targetPoint" />
            <Array as="points">
              <mxPoint x="161" y="320" />
              <mxPoint x="251" y="320" />
              <mxPoint x="251" y="380" />
            </Array>
          </mxGeometry>
        </mxCell>
        <mxCell id="X5zUQhGE-58T7xV7t1pe-1" value="" style="html=1;strokeWidth=4;fillColor=#0050ef;strokeColor=#0000FF;endArrow=none;endFill=0;" parent="_YcDlDGD7Q-Z-5NjXwbV-30" edge="1">
          <mxGeometry x="-283" y="-390" width="100" as="geometry">
            <mxPoint x="241" y="320" as="sourcePoint" />
            <mxPoint x="111" y="320" as="targetPoint" />
            <Array as="points">
              <mxPoint x="161" y="320" />
            </Array>
          </mxGeometry>
        </mxCell>
        <mxCell id="X5zUQhGE-58T7xV7t1pe-3" value="Il faut &quot;ponter&quot; le neutre au niveau du contacteur.&lt;br&gt;&lt;br&gt;Autre solution :&lt;br&gt;sortir le neutre en haut et en bas et relier les 2 fils par un Wago (16A ou plus)" style="shape=callout;whiteSpace=wrap;html=1;perimeter=calloutPerimeter;direction=west;align=left;" parent="_YcDlDGD7Q-Z-5NjXwbV-30" vertex="1">
          <mxGeometry x="10" y="340" width="230" height="130" as="geometry" />
        </mxCell>
        <mxCell id="_YcDlDGD7Q-Z-5NjXwbV-32" value="" style="whiteSpace=wrap;html=1;aspect=fixed;fillColor=#fa6800;strokeColor=#C73500;fontColor=#ffffff;" parent="1" vertex="1">
          <mxGeometry x="213" y="820" width="60" height="60" as="geometry" />
        </mxCell>
        <mxCell id="_YcDlDGD7Q-Z-5NjXwbV-33" value="" style="verticalLabelPosition=bottom;shadow=0;dashed=0;align=center;html=1;verticalAlign=top;shape=mxgraph.electrical.transmission.terminal_3_phase;pointerEvents=1;" parent="1" vertex="1">
          <mxGeometry x="221.5" y="845" width="43" height="10" as="geometry" />
        </mxCell>
        <mxCell id="_YcDlDGD7Q-Z-5NjXwbV-34" value="Connecteur TRIAC orange&lt;br&gt;Borne du milieu non connectée" style="shape=callout;whiteSpace=wrap;html=1;perimeter=calloutPerimeter;" parent="1" vertex="1">
          <mxGeometry x="160" y="740" width="170" height="80" as="geometry" />
        </mxCell>
        <mxCell id="_YcDlDGD7Q-Z-5NjXwbV-35" value="" style="verticalLabelPosition=middle;dashed=0;shadow=0;align=center;verticalAlign=middle;shape=mxgraph.cabinets.surge_protection_2p;labelPosition=center;html=1;" parent="1" vertex="1">
          <mxGeometry x="55" y="790" width="50" height="120" as="geometry" />
        </mxCell>
        <mxCell id="_YcDlDGD7Q-Z-5NjXwbV-36" value="Disjoncteur&lt;br&gt;Charge #n" style="shape=callout;whiteSpace=wrap;html=1;perimeter=calloutPerimeter;" parent="1" vertex="1">
          <mxGeometry x="20" y="710" width="120" height="80" as="geometry" />
        </mxCell>
        <mxCell id="_YcDlDGD7Q-Z-5NjXwbV-37" value="" style="pointerEvents=1;verticalLabelPosition=bottom;shadow=0;dashed=0;align=center;html=1;verticalAlign=top;shape=mxgraph.electrical.resistors.resistor_2;" parent="1" vertex="1">
          <mxGeometry x="105" y="980" width="100" height="20" as="geometry" />
        </mxCell>
        <mxCell id="_YcDlDGD7Q-Z-5NjXwbV-38" value="Charge #n" style="shape=callout;whiteSpace=wrap;html=1;perimeter=calloutPerimeter;direction=west;" parent="1" vertex="1">
          <mxGeometry x="95" y="1000" width="120" height="80" as="geometry" />
        </mxCell>
        <mxCell id="_YcDlDGD7Q-Z-5NjXwbV-39" value="" style="html=1;exitX=0.78;exitY=0.95;exitDx=0;exitDy=0;exitPerimeter=0;entryX=0.12;entryY=1;entryDx=0;entryDy=0;entryPerimeter=0;fillColor=#a20025;shadow=0;strokeWidth=4;strokeColor=#FF0000;endArrow=none;endFill=0;" parent="1" source="_YcDlDGD7Q-Z-5NjXwbV-35" target="_YcDlDGD7Q-Z-5NjXwbV-33" edge="1">
          <mxGeometry width="100" relative="1" as="geometry">
            <mxPoint x="375" y="930" as="sourcePoint" />
            <mxPoint x="475" y="930" as="targetPoint" />
            <Array as="points">
              <mxPoint x="95" y="940" />
              <mxPoint x="227" y="940" />
            </Array>
          </mxGeometry>
        </mxCell>
        <mxCell id="_YcDlDGD7Q-Z-5NjXwbV-40" value="" style="html=1;exitX=0.88;exitY=1;exitDx=0;exitDy=0;exitPerimeter=0;entryX=1;entryY=0.5;entryDx=0;entryDy=0;entryPerimeter=0;fillColor=#a20025;strokeWidth=4;strokeColor=#FF0000;endArrow=none;endFill=0;" parent="1" source="_YcDlDGD7Q-Z-5NjXwbV-33" target="_YcDlDGD7Q-Z-5NjXwbV-37" edge="1">
          <mxGeometry width="100" relative="1" as="geometry">
            <mxPoint x="305" y="970" as="sourcePoint" />
            <mxPoint x="521.1600000000001" y="921" as="targetPoint" />
            <Array as="points">
              <mxPoint x="259" y="990" />
            </Array>
          </mxGeometry>
        </mxCell>
        <mxCell id="_YcDlDGD7Q-Z-5NjXwbV-41" value="" style="html=1;entryX=0.22;entryY=0.958;entryDx=0;entryDy=0;entryPerimeter=0;strokeWidth=4;fillColor=#0050ef;strokeColor=#0000FF;endArrow=none;endFill=0;" parent="1" target="_YcDlDGD7Q-Z-5NjXwbV-35" edge="1">
          <mxGeometry width="100" relative="1" as="geometry">
            <mxPoint x="110" y="990" as="sourcePoint" />
            <mxPoint x="55" y="1062.5" as="targetPoint" />
            <Array as="points">
              <mxPoint x="66" y="990" />
            </Array>
          </mxGeometry>
        </mxCell>
        <mxCell id="_YcDlDGD7Q-Z-5NjXwbV-42" value="" style="html=1;strokeWidth=4;fillColor=#0050ef;strokeColor=#0000FF;endArrow=none;endFill=0;" parent="1" edge="1">
          <mxGeometry width="100" relative="1" as="geometry">
            <mxPoint x="65" y="800" as="sourcePoint" />
            <mxPoint x="65" y="770" as="targetPoint" />
            <Array as="points">
              <mxPoint x="65" y="800.04" />
            </Array>
          </mxGeometry>
        </mxCell>
        <mxCell id="_YcDlDGD7Q-Z-5NjXwbV-43" value="" style="html=1;strokeWidth=4;fillColor=#0050ef;strokeColor=#FF0000;endArrow=none;endFill=0;" parent="1" edge="1">
          <mxGeometry width="100" relative="1" as="geometry">
            <mxPoint x="95" y="800" as="sourcePoint" />
            <mxPoint x="95" y="770" as="targetPoint" />
            <Array as="points">
              <mxPoint x="95" y="800.04" />
              <mxPoint x="95" y="790" />
            </Array>
          </mxGeometry>
        </mxCell>
        <mxCell id="_YcDlDGD7Q-Z-5NjXwbV-48" value="" style="endArrow=none;html=1;strokeWidth=4;" parent="1" edge="1">
          <mxGeometry width="50" height="50" relative="1" as="geometry">
            <mxPoint x="10" y="590" as="sourcePoint" />
            <mxPoint x="810" y="590" as="targetPoint" />
          </mxGeometry>
        </mxCell>
        <mxCell id="_YcDlDGD7Q-Z-5NjXwbV-50" value="Carte de sortie" style="text;html=1;align=center;verticalAlign=middle;resizable=0;points=[];autosize=1;fontStyle=1;fontSize=20;" parent="1" vertex="1">
          <mxGeometry x="310" y="590" width="160" height="30" as="geometry" />
        </mxCell>
        <mxCell id="_YcDlDGD7Q-Z-5NjXwbV-51" value="" style="endArrow=none;dashed=1;html=1;strokeWidth=4;fontSize=20;" parent="1" edge="1">
          <mxGeometry width="50" height="50" relative="1" as="geometry">
            <mxPoint x="350" y="1150" as="sourcePoint" />
            <mxPoint x="350" y="630" as="targetPoint" />
          </mxGeometry>
        </mxCell>
        <mxCell id="_YcDlDGD7Q-Z-5NjXwbV-52" value="SANS contacteur Jour/Nuit" style="text;html=1;strokeColor=none;fillColor=none;align=center;verticalAlign=middle;whiteSpace=wrap;rounded=0;fontSize=20;" parent="1" vertex="1">
          <mxGeometry x="20" y="630" width="300" height="20" as="geometry" />
        </mxCell>
        <mxCell id="_YcDlDGD7Q-Z-5NjXwbV-54" value="AVEC contacteur Jour/Nuit" style="text;html=1;strokeColor=none;fillColor=none;align=center;verticalAlign=middle;whiteSpace=wrap;rounded=0;fontSize=20;" parent="1" vertex="1">
          <mxGeometry x="420" y="630" width="300" height="20" as="geometry" />
        </mxCell>
        <mxCell id="_YcDlDGD7Q-Z-5NjXwbV-56" value="&lt;font style=&quot;font-size: 15px&quot;&gt;Les fils DOIVENT être en&amp;nbsp;&lt;b&gt;&lt;u&gt;&lt;font color=&quot;#ff0000&quot;&gt;2.5mm&lt;sup&gt;2&lt;/sup&gt;&lt;/font&gt;&lt;/u&gt;&lt;/b&gt;&amp;nbsp;de section&lt;/font&gt;" style="text;html=1;strokeColor=none;fillColor=none;align=center;verticalAlign=middle;whiteSpace=wrap;rounded=0;fontSize=20;" parent="1" vertex="1">
          <mxGeometry x="10" y="1130" width="320" height="20" as="geometry" />
        </mxCell>
        <mxCell id="_YcDlDGD7Q-Z-5NjXwbV-57" value="&lt;font style=&quot;font-size: 15px&quot;&gt;Les fils DOIVENT être en &lt;b&gt;&lt;u&gt;&lt;font color=&quot;#ff0000&quot;&gt;2.5mm&lt;sup&gt;2&lt;/sup&gt;&lt;/font&gt;&lt;/u&gt;&lt;/b&gt; de section&lt;/font&gt;" style="text;html=1;strokeColor=none;fillColor=none;align=center;verticalAlign=middle;whiteSpace=wrap;rounded=0;fontSize=20;" parent="1" vertex="1">
          <mxGeometry x="430" y="1130" width="320" height="20" as="geometry" />
        </mxCell>
        <mxCell id="X5zUQhGE-58T7xV7t1pe-4" value="&lt;div&gt;&lt;span style=&quot;font-size: 16px&quot;&gt;&lt;b&gt;Installation des pinces&lt;/b&gt;&lt;/span&gt;&lt;/div&gt;&lt;div&gt;&lt;span style=&quot;font-size: 16px&quot;&gt;&lt;b&gt;&lt;br&gt;&lt;/b&gt;&lt;/span&gt;&lt;/div&gt;&lt;div style=&quot;text-align: left&quot;&gt;&lt;span&gt;Les pinces doivent être installées entre le compteur/disjoncteur principal et l&#39;arrivée principale dans le tableau.&lt;/span&gt;&lt;/div&gt;&lt;div&gt;&lt;span&gt;&lt;br&gt;&lt;/span&gt;&lt;/div&gt;&lt;div style=&quot;text-align: left&quot;&gt;&lt;span&gt;Il y a une flèche gravée sur chaque pince. Cette flèche doit être dans le sens compteur VERS tableau.&lt;/span&gt;&lt;/div&gt;&lt;div style=&quot;text-align: left&quot;&gt;&lt;span&gt;&lt;br&gt;&lt;/span&gt;&lt;/div&gt;&lt;div style=&quot;text-align: left&quot;&gt;&lt;span&gt;Il faut respecter le marquage. La pince L1, doit être connectée à la prise jack L1.&lt;/span&gt;&lt;/div&gt;&lt;div style=&quot;text-align: left&quot;&gt;&lt;span&gt;&lt;br&gt;&lt;font color=&quot;#ff0000&quot;&gt;&lt;b&gt;La phase qui passe par la pince L1 doit être la même que celle qui est connectée à la borne L1 de l&#39;alimentation du routeur.&lt;/b&gt;&lt;/font&gt;&lt;/span&gt;&lt;/div&gt;&lt;div style=&quot;text-align: left&quot;&gt;&lt;b&gt;Idem pour L2 et L3.&lt;/b&gt;&lt;br&gt;Si nécessaire, contrôler au multimètre (position V~) :&lt;br&gt;&lt;ul&gt;&lt;li&gt;tension entre phases différentes =&amp;gt; env. 400V&lt;/li&gt;&lt;li&gt;tension sur la même phase =&amp;gt; 0V.&lt;/li&gt;&lt;/ul&gt;&lt;/div&gt;" style="rounded=0;whiteSpace=wrap;html=1;verticalAlign=top;perimeterSpacing=2;spacing=4;" parent="1" vertex="1">
          <mxGeometry x="20.5" y="190" width="369.5" height="280" as="geometry" />
        </mxCell>
        <mxCell id="X5zUQhGE-58T7xV7t1pe-5" value="Alimentation du routeur" style="text;html=1;align=center;verticalAlign=middle;resizable=0;points=[];autosize=1;fontStyle=1;fontSize=20;" parent="1" vertex="1">
          <mxGeometry x="260" y="10" width="240" height="30" as="geometry" />
        </mxCell>
      </root>
    </mxGraphModel>
  </diagram>
</mxfile>
